<svg xmlns="http://www.w3.org/2000/svg" viewBox="0 0 122 122">
  <defs>
    <style>
      .cls-1 {
        fill: #636363;
      }
    </style>
  </defs>
  <title>dice-3-freezed</title>
  <g id="Layer_2" data-name="Layer 2">
    <g id="Layer_1-2" data-name="Layer 1">
      <path class="cls-1" d="M114,0H8A8,8,0,0,0,0,8V114a8,8,0,0,0,8,8H114a8,8,0,0,0,8-8V8A8,8,0,0,0,114,0ZM40.49,40.49A9,9,0,0,1,27.77,27.77h0a9,9,0,0,1,12.73,0h0A9,9,0,0,1,40.49,40.49ZM67.36,67.36a9,9,0,1,1,0-12.73A9,9,0,0,1,67.36,67.36ZM94.23,94.23a9,9,0,1,1,0-12.73A9,9,0,0,1,94.23,94.23Z"/>
    </g>
  </g>
</svg>
