<svg xmlns="http://www.w3.org/2000/svg" viewBox="0 0 122 122">
  <defs>
    <style>
      .cls-1 {
        fill: #636363;
      }
    </style>
  </defs>
  <title>dice-6--freezed</title>
  <g id="Layer_2" data-name="Layer 2">
    <g id="Layer_1-2" data-name="Layer 1">
      <path class="cls-1" d="M114,0H8A8,8,0,0,0,0,8V114a8,8,0,0,0,8,8H114a8,8,0,0,0,8-8V8A8,8,0,0,0,114,0ZM23,89a9,9,0,1,1,9-9A9,9,0,0,1,23,89Zm0-38a9,9,0,1,1,9-9A9,9,0,0,1,23,51ZM61,89a9,9,0,1,1,9-9A9,9,0,0,1,61,89Zm9-47a9,9,0,1,1-9-9,9,9,0,0,1,9,9ZM99,89a9,9,0,1,1,9-9A9,9,0,0,1,99,89Zm9-47a9,9,0,0,1-18,0h0a9,9,0,0,1,18,0Z"/>
    </g>
  </g>
</svg>
